HIERARCHY
ROOT Hips
{
	OFFSET 0.000000 0.000000 0.000000 
	CHANNELS 6 Xposition Yposition Zposition Zrotation Yrotation Xrotation
	JOINT LeftUpLeg
	{
		OFFSET 1.363060 -1.794630 0.839290 
		CHANNELS 3 Zrotation Yrotation Xrotation
		JOINT LeftLeg
		{
			OFFSET 2.448110 -6.726130 0.000000 
			CHANNELS 3 Zrotation Yrotation Xrotation
			JOINT LeftFoot
			{
				OFFSET 2.562200 -7.039590 0.000000 
				CHANNELS 3 Zrotation Yrotation Xrotation
				JOINT LeftToeBase
				{
					OFFSET 0.157640 -0.433110 2.322550 
					CHANNELS 3 Zrotation Yrotation Xrotation
					End Site
					{
						OFFSET 0.000000 0.000000 0.000000 
					}
				}
			}
		}
	}
	JOINT RightUpLeg
	{
		OFFSET -1.305520 -1.794630 0.839290 
		CHANNELS 3 Zrotation Yrotation Xrotation
		JOINT RightLeg
		{
			OFFSET -2.542530 -6.985550 0.000000 
			CHANNELS 3 Zrotation Yrotation Xrotation
			JOINT RightFoot
			{
				OFFSET -2.568260 -7.056230 0.000000 
				CHANNELS 3 Zrotation Yrotation Xrotation
				JOINT RightToeBase
				{
					OFFSET -0.164730 -0.452590 2.363150 
					CHANNELS 3 Zrotation Yrotation Xrotation
					End Site
					{
						OFFSET 0.000000 0.000000 0.000000 
					}
				}
			}
		}
	}
	JOINT Spine
	{
		OFFSET 0.028270 2.035590 -0.193380 
		CHANNELS 3 Zrotation Yrotation Xrotation
		JOINT Spine1
		{
			OFFSET 0.056720 2.048850 -0.042750 
			CHANNELS 3 Zrotation Yrotation Xrotation
			JOINT Neck1
			{
				OFFSET -0.054170 1.746240 0.172020 
				CHANNELS 3 Zrotation Yrotation Xrotation
				JOINT Head
				{
					OFFSET 0.104070 1.761360 -0.123970 
					CHANNELS 3 Zrotation Yrotation Xrotation
					End Site
					{
						OFFSET 0.000000 0.000000 0.000000 
					}
				}
			}
			JOINT LeftArm
			{
				OFFSET 3.362410 1.200890 -0.311210 
				CHANNELS 3 Zrotation Yrotation Xrotation
				JOINT LeftForeArm
				{
					OFFSET 4.983000 -0.000000 -0.000000 
					CHANNELS 3 Zrotation Yrotation Xrotation
					JOINT LeftHand
					{
						OFFSET 3.483560 -0.000000 -0.000000 
						CHANNELS 3 Zrotation Yrotation Xrotation
						JOINT LeftHandIndex1
						{
							OFFSET 0.715260 -0.000000 -0.000000 
							CHANNELS 3 Zrotation Yrotation Xrotation
							End Site
							{
								OFFSET 0.000000 0.000000 0.000000 
							}
						}
					}
				}
			}
			JOINT RightArm
			{
				OFFSET -3.136600 1.374050 -0.404650 
				CHANNELS 3 Zrotation Yrotation Xrotation
				JOINT RightForeArm
				{
					OFFSET -5.241900 -0.000000 -0.000000 
					CHANNELS 3 Zrotation Yrotation Xrotation
					JOINT RightHand
					{
						OFFSET -3.444170 -0.000000 -0.000000 
						CHANNELS 3 Zrotation Yrotation Xrotation
						JOINT RightHandIndex1
						{
							OFFSET -0.622530 -0.000000 -0.000000 
							CHANNELS 3 Zrotation Yrotation Xrotation
							End Site
							{
								OFFSET 0.000000 0.000000 0.000000 
							}
						}
					}
				}
			}
		}
	}
}
MOTION
Frames: 18
Frame Time: 0.041667
-41.289877 17.167847 3.020838 5.468581 67.439803 9.140332 -9.651148 21.314881 -12.658529 1.762826 9.812531 29.927673 -1.050239 6.081575 -3.710626 1.972000 -8.807500 -25.195000 4.076515 -6.358865 -31.999977 -7.179060 -17.598184 50.805421 -0.445040 -1.066421 3.199344 -0.039500 1.282300 -3.525900 0.053437 -2.280468 -2.584274 2.657264 -1.281067 0.661604 15.823877 -30.851398 -4.468321 18.151300 -9.693200 -1.772700 -66.184334 2.696485 75.817276 140.395974 -45.580526 -100.322304 -0.865473 -0.539476 -22.232079 -7.125000 0.000000 0.000000 52.829813 -10.201009 71.495655 -140.674073 44.994926 -103.683679 -0.983587 -0.181227 -32.088106 7.125000 0.000000 0.000000 
-41.212610 17.164770 3.098106 5.524960 66.988007 8.859873 -9.456539 21.097330 -11.400401 1.623911 9.537725 29.199956 -1.235394 6.560522 -4.062563 1.856500 -8.560600 -24.430100 3.259722 -5.857163 -31.481434 -6.814621 -17.313792 49.477568 -0.173526 -2.014411 4.331472 -0.046100 1.385500 -3.810300 0.171429 -2.708486 -2.575088 3.526004 -1.581004 1.171764 14.912008 -29.401837 -3.511999 17.560900 -9.261800 -1.586100 -66.503051 -1.286457 75.660424 141.007539 -44.692029 -100.933832 -0.843267 -0.539564 -22.808975 -7.125000 0.000000 0.000000 49.707194 -8.047444 68.927901 -141.660630 44.137290 -104.885044 -1.255146 -0.059808 -32.470448 7.125000 0.000000 0.000000 
-41.097507 17.156336 3.175145 5.003164 66.033120 7.915935 -9.205463 21.157574 -9.898225 1.539773 9.260591 28.580513 -1.670472 7.725270 -5.157664 2.058600 -8.987200 -25.755200 2.532486 -5.089684 -30.869235 -6.425487 -17.034032 48.108688 0.087757 -2.942098 5.263620 -0.106500 2.104500 -5.794600 0.247392 -3.065292 -2.589708 3.766974 -1.791821 1.509262 13.943127 -27.619115 -2.439326 16.977600 -8.760400 -1.404800 -68.479566 -6.353907 75.295740 140.604578 -44.349476 -100.890071 -0.858389 -0.499011 -21.977255 -7.125000 0.000000 0.000000 46.782758 -5.887904 66.194233 -142.413039 43.294891 -105.866557 -1.509467 0.013391 -32.839090 7.125000 0.000000 0.000000 
-41.031522 17.146877 3.261530 5.549196 65.709700 8.202842 -9.137624 21.012674 -8.900935 1.404613 8.983008 27.845608 -2.019930 8.645822 -5.677904 2.436800 -9.722100 -28.081500 1.617672 -4.604916 -30.516125 -6.094109 -16.715173 46.721435 0.470873 -4.241417 6.155313 -0.179100 2.726200 -7.517200 0.391135 -3.740020 -2.670209 4.828285 -2.197857 1.422361 13.010006 -25.699678 -1.461296 16.429800 -8.169400 -1.351500 -68.356836 -10.695238 74.806742 139.407158 -44.510714 -100.123298 -0.823097 -0.401988 -21.021751 -7.125000 0.000000 0.000000 43.986394 -3.302844 62.797624 -142.523799 42.897628 -106.382088 -1.701169 0.061538 -33.414583 7.125000 0.000000 0.000000 
-40.960066 17.130467 3.349054 5.942993 65.564390 8.427454 -9.035764 20.723197 -7.666652 1.267793 8.676182 27.114401 -2.135500 8.956840 -6.044421 2.282800 -9.431800 -27.155500 0.680247 -4.060735 -30.142952 -5.746283 -16.445172 45.300729 0.783883 -5.355450 7.130457 -0.265100 3.312600 -9.150200 0.221385 -4.727175 -2.714184 1.865312 -2.494697 1.521901 12.223253 -23.665095 -0.457277 15.641700 -7.708500 -1.147300 -65.526893 -14.538272 73.009628 138.626458 -44.984850 -99.981560 -0.624040 -0.489426 -20.247330 -7.125000 0.000000 0.000000 44.634274 -0.246535 59.358855 -141.638171 42.699159 -106.156440 -1.624576 0.044066 -33.651823 7.125000 0.000000 0.000000 
-40.892258 17.117133 3.441137 6.917051 65.414137 9.240190 -9.151121 20.277548 -6.561104 1.117534 8.414680 26.407451 -2.225398 9.160005 -5.743797 1.462900 -7.643900 -21.637700 -0.391348 -3.612020 -29.821107 -5.435172 -16.109831 43.882407 1.037061 -6.303735 8.118367 -0.425900 4.188500 -11.607600 0.298859 -5.493439 -2.786076 2.121466 -2.897644 1.779675 11.221252 -21.678015 0.735144 14.657900 -7.187900 -0.732900 -67.874495 -21.101003 72.268290 137.339830 -44.998489 -99.431571 -0.692224 -0.529920 -20.055253 -7.125000 0.000000 0.000000 43.499292 2.914072 54.934416 -140.419976 43.211586 -105.732703 -1.615517 0.052029 -34.620077 7.125000 0.000000 0.000000 
-40.829008 17.101178 3.538917 7.926151 65.292962 10.019082 -9.243269 20.036691 -5.630054 0.990313 8.175246 25.791688 -2.004821 8.553940 -5.395731 0.888700 -6.008900 -16.810300 -1.449078 -3.223082 -29.462239 -5.151237 -15.757988 42.459572 1.350883 -7.433371 9.070959 -0.661200 5.200500 -14.481300 0.391468 -6.342769 -2.874527 2.532957 -3.361683 2.080509 10.018340 -19.353329 2.216658 13.439700 -6.593500 -0.029400 -67.771427 -26.356354 70.776618 135.059667 -45.703081 -97.974687 -0.673648 -0.518583 -20.026932 -7.125000 0.000000 0.000000 42.355947 6.739726 50.496371 -138.652633 44.093601 -104.858166 -1.528333 0.033735 -35.871738 7.125000 0.000000 0.000000 
-40.764732 17.074852 3.639775 7.458656 65.181865 9.311108 -8.643486 20.130570 -4.715630 0.956983 7.959716 25.374627 -1.470081 7.129544 -5.262462 0.708700 -5.380500 -14.997200 -1.957015 -2.684632 -28.940987 -4.846972 -15.443264 41.082344 1.774540 -8.853801 9.954810 -0.904000 6.059200 -16.956200 0.400771 -6.707205 -2.852007 1.863793 -3.546850 2.969389 9.097351 -17.744128 3.323559 12.039400 -6.193500 0.731500 -66.810123 -32.663126 69.613162 132.653487 -46.425093 -96.449647 -0.636240 -0.571659 -20.099642 -7.125000 0.000000 0.000000 41.979506 10.714712 44.859060 -136.187432 45.424363 -103.561406 -1.322442 -0.013495 -36.808976 7.125000 0.000000 0.000000 
-40.702166 17.050236 3.743141 7.267188 65.080688 8.872470 -8.099057 20.317809 -4.015290 0.979416 7.836702 25.198328 -1.255653 6.538955 -5.106982 0.721700 -5.428500 -15.134800 -2.533185 -2.027502 -28.386664 -4.559695 -15.104077 39.699806 2.138689 -10.152696 11.056707 -1.058500 6.541400 -18.363500 0.507858 -7.297670 -2.874817 2.329269 -3.912734 3.427902 8.388211 -16.011246 4.179494 11.247100 -5.618000 1.139600 -65.072090 -37.638804 67.298652 128.534766 -47.797450 -93.397256 -0.618350 -0.601208 -20.455620 -7.125000 0.000000 0.000000 40.928583 15.061400 39.622189 -133.049899 47.229878 -101.628691 -1.105887 -0.038477 -37.840326 7.125000 0.000000 0.000000 
-40.643931 17.025050 3.849811 7.747436 65.097633 9.144079 -7.830113 20.604182 -3.665606 1.045554 7.826662 25.307553 -1.230197 6.437206 -4.784949 0.865000 -5.930500 -16.582800 -3.348160 -1.455151 -27.883909 -4.305634 -14.750849 38.317855 2.354368 -11.149602 12.512286 -1.035700 6.472800 -18.162500 0.570287 -8.203986 -2.961844 2.116643 -4.351238 3.422999 7.703160 -13.924230 4.934882 10.402600 -4.890500 1.328300 -64.913868 -42.821372 64.864738 124.619569 -48.770672 -90.677539 -0.609979 -0.711254 -21.561771 -7.125000 0.000000 0.000000 40.807410 19.652282 35.105454 -128.948968 49.220705 -98.868829 -0.815935 -0.045849 -38.721417 7.125000 0.000000 0.000000 
-40.586835 16.993368 3.960697 8.069264 65.169977 9.223284 -7.431917 21.163018 -3.621149 1.191635 7.904314 25.664151 -1.481177 7.048363 -4.109908 1.579600 -7.929300 -22.499600 -4.037069 -1.036270 -27.387033 -4.091350 -14.397357 37.008209 2.498148 -12.094357 14.361953 -1.042100 6.492200 -18.219500 0.694067 -9.102169 -3.057492 2.473750 -4.855069 3.424309 6.955110 -11.687929 5.687596 9.339700 -4.085200 1.509400 -64.126749 -47.807955 62.249188 119.683383 -49.641788 -87.019526 -0.626874 -0.794470 -24.213182 -7.125000 0.000000 0.000000 40.574727 24.538979 30.787241 -123.919578 51.367390 -95.307249 -0.468236 -0.026540 -39.654324 7.125000 0.000000 0.000000 
-40.533158 16.954620 4.078308 7.948036 65.288045 8.879604 -6.749845 21.766429 -3.839289 1.417416 8.077272 26.333491 -1.589029 7.285923 -3.266704 2.418900 -9.688900 -27.974900 -4.538206 -0.353178 -26.833498 -3.916190 -14.060441 35.751944 2.702313 -13.396423 16.547547 -1.279600 7.168600 -20.215800 0.953406 -9.940439 -3.209982 4.527499 -5.443079 3.060638 6.416498 -9.541544 6.270985 8.690200 -3.254200 1.670700 -64.429760 -52.875015 59.576449 112.112454 -50.435149 -80.909263 -0.741856 -0.873354 -26.009211 -7.125000 0.000000 0.000000 39.602912 29.422461 26.812946 -117.967147 53.476115 -90.926666 -0.022835 0.027215 -40.890350 7.125000 0.000000 0.000000 
-40.484723 16.902881 4.197970 7.472952 65.538986 8.358590 -5.915039 22.257418 -4.239372 1.700046 8.362826 27.377468 -1.165444 6.130703 -2.504372 2.218600 -9.307200 -26.761200 -4.920564 0.331683 -26.316540 -3.730728 -13.757530 34.572383 2.743686 -14.360131 18.733232 -1.449500 7.610600 -21.537400 1.115361 -10.780172 -3.298742 5.417391 -5.923519 2.966673 6.151092 -7.738889 6.667288 8.420400 -2.489900 1.795200 -63.711856 -57.470445 56.668833 103.901881 -50.757176 -73.989811 -0.837904 -1.008186 -27.593156 -7.125000 0.000000 0.000000 39.583004 34.557847 23.017245 -110.432930 55.149939 -85.274389 0.386298 0.166007 -41.615943 7.125000 0.000000 0.000000 
-40.437086 16.850458 4.319683 7.623162 65.754982 8.418452 -5.343168 22.999301 -4.863850 2.047330 8.748974 28.698479 -0.982632 5.628462 -1.865582 2.288200 -9.442200 -27.188800 -5.437501 0.639747 -25.924552 -3.546241 -13.452948 33.535602 2.507565 -14.489764 20.624241 -1.636300 8.063400 -22.906900 1.217409 -11.389645 -3.352583 5.998881 -6.262017 3.111570 5.927883 -6.204352 7.026023 8.143000 -1.829800 1.944400 -63.296396 -63.170530 54.767219 94.009740 -50.038690 -65.005778 -0.991518 -1.178319 -30.175338 -7.125000 0.000000 0.000000 39.825933 39.592490 19.627978 -101.335883 55.859682 -78.365467 0.770140 0.354475 -41.265468 7.125000 0.000000 0.000000 
-40.388766 16.804872 4.443904 8.251615 66.025802 9.017084 -4.965640 23.788185 -5.784644 2.441327 9.215921 30.230484 -0.951508 5.539758 -1.089574 2.650300 -10.106200 -29.321300 -6.067129 0.932269 -25.589051 -3.382911 -13.183565 32.711337 2.281968 -14.282088 21.564260 -2.342200 9.545200 -27.516000 1.309645 -11.938285 -3.398719 6.802205 -6.547153 3.345668 5.711109 -4.703969 7.343671 7.917900 -1.166700 1.978800 -63.405732 -69.919669 53.368988 83.240085 -48.135882 -54.782043 -1.220300 -1.486037 -32.679485 -7.125000 0.000000 0.000000 40.052640 44.656923 17.216097 -91.496885 55.072529 -70.461022 1.077395 0.500535 -40.267628 7.125000 0.000000 0.000000 
-40.341015 16.743559 4.565959 8.790721 66.656879 9.722470 -4.493304 24.293681 -6.753377 2.887784 9.715344 31.990196 -0.658743 4.709291 0.276969 2.167200 -9.206000 -26.441900 -6.575262 1.068497 -25.377931 -3.184063 -13.020215 32.182044 1.971788 -13.476289 21.521976 -2.817600 10.393800 -30.261600 1.404929 -11.839486 -3.321924 8.642050 -6.507580 5.230917 5.398906 -3.023824 7.506724 7.817000 -0.401900 1.947800 -74.469632 -86.083410 57.798313 69.607244 -48.615906 -43.727918 -1.329885 -2.284045 -34.920671 -7.125000 0.000000 0.000000 39.379394 49.994361 15.281538 -81.923524 53.002489 -61.822836 1.234656 0.467594 -39.338914 7.125000 0.000000 0.000000 
-40.290871 16.663557 4.687786 8.551231 66.947533 9.314740 -3.647740 24.861782 -7.538629 3.422530 10.255609 33.932630 -0.504423 4.284168 1.855733 1.417500 -7.529700 -21.294300 -6.785648 1.232903 -25.064430 -3.048859 -12.854256 31.991923 1.672621 -12.345306 20.979611 -2.619200 10.051400 -29.143500 1.574691 -12.190198 -3.487998 9.069428 -6.918753 6.167153 5.286926 -1.468914 7.552331 7.575800 0.295100 1.902700 85.112423 -85.127617 -109.290800 56.419841 -52.455596 -33.483538 -1.104481 -2.010530 -37.460639 -7.125000 0.000000 0.000000 38.973398 54.376319 13.282681 -72.833208 50.144780 -52.920525 1.291456 0.257096 -38.364593 7.125000 0.000000 0.000000 
-40.239815 16.595521 4.808816 7.239960 66.971155 7.818838 -2.445286 25.351279 -8.272417 3.975237 10.825462 35.937663 -0.034928 3.002339 2.835807 1.398300 -7.480600 -21.147400 -6.648892 1.615657 -24.553568 -2.977095 -12.758833 32.126824 1.528335 -11.447937 19.970904 -2.910700 10.549100 -30.773800 1.715616 -12.980131 -3.572640 9.215779 -7.252434 3.971108 5.065200 0.019966 7.724575 7.074400 0.951100 1.724200 66.452320 -86.855445 -94.695556 45.106429 -49.815664 -25.183694 -0.949936 -1.994796 -39.681533 -7.125000 0.000000 0.000000 39.806941 57.812953 11.884208 -64.339193 47.113105 -44.134586 1.150339 -0.116022 -37.342128 7.125000 0.000000 0.000000 
